HIERARCHY
ROOT joint_Root
{
	OFFSET 0.0 0.0 0.0
	CHANNELS 6 Xposition Yposition Zposition Zrotation Xrotation Yrotation 
	JOINT Hips
	{
		OFFSET -0.726466 93.3139 -2.00062
		CHANNELS 6 Xposition Yposition Zposition Zrotation Xrotation Yrotation 
		JOINT Spine
		{
			OFFSET 15.7357 0.0 0.0
			CHANNELS 6 Xposition Yposition Zposition Zrotation Xrotation Yrotation 
			JOINT Chest
			{
				OFFSET 8.98455 -0.406207 0.0
				CHANNELS 6 Xposition Yposition Zposition Zrotation Xrotation Yrotation 
				JOINT Neck
				{
					OFFSET 16.3773 0.0 0.0
					CHANNELS 6 Xposition Yposition Zposition Zrotation Xrotation Yrotation 
					JOINT Head
					{
						OFFSET 6.45672 0.0 0.0
						CHANNELS 6 Xposition Yposition Zposition Zrotation Xrotation Yrotation 
						End Site
						{
							OFFSET 0.0 0.0 0.0
						}
					}
				}
				JOINT Shoulder_L
				{
					OFFSET 12.9942 -0.242716 4.98039
					CHANNELS 6 Xposition Yposition Zposition Zrotation Xrotation Yrotation 
					JOINT UpperArm_L
					{
						OFFSET 5.34809 0.0 0.0
						CHANNELS 6 Xposition Yposition Zposition Zrotation Xrotation Yrotation 
						JOINT LowerArm_L
						{
							OFFSET 24.3286 1.87007e-05 0.0
							CHANNELS 6 Xposition Yposition Zposition Zrotation Xrotation Yrotation 
							JOINT Hand_L
							{
								OFFSET 22.2916 0.0 0.0
								CHANNELS 6 Xposition Yposition Zposition Zrotation Xrotation Yrotation 
								End Site
								{
									OFFSET 0.0 0.0 0.0
								}
							}
						}
					}
				}
				JOINT Shoulder_R
				{
					OFFSET 12.9945 -0.242716 -4.98039
					CHANNELS 6 Xposition Yposition Zposition Zrotation Xrotation Yrotation 
					JOINT UpperArm_R
					{
						OFFSET -5.34813 0.0 0.0
						CHANNELS 6 Xposition Yposition Zposition Zrotation Xrotation Yrotation 
						JOINT LowerArm_R
						{
							OFFSET -24.3289 0.000322201 0.0
							CHANNELS 6 Xposition Yposition Zposition Zrotation Xrotation Yrotation 
							JOINT Hand_R
							{
								OFFSET -22.2915 -0.000108084 0.0
								CHANNELS 6 Xposition Yposition Zposition Zrotation Xrotation Yrotation 
								End Site
								{
									OFFSET 0.0 0.0 0.0
								}
							}
						}
					}
				}
			}
		}
		JOINT UpperLeg_L
		{
			OFFSET -2.19248 -6.46944 0.0
			CHANNELS 6 Xposition Yposition Zposition Zrotation Xrotation Yrotation 
			JOINT LowerLeg_L
			{
				OFFSET 39.0811 0.0 -1.23785e-05
				CHANNELS 6 Xposition Yposition Zposition Zrotation Xrotation Yrotation 
				JOINT Foot_L
				{
					OFFSET 40.9854 0.0 -1.26872e-05
					CHANNELS 6 Xposition Yposition Zposition Zrotation Xrotation Yrotation 
					JOINT Toes_L
					{
						OFFSET 11.7543 0.0 0.0
						CHANNELS 6 Xposition Yposition Zposition Zrotation Xrotation Yrotation 
						End Site
						{
							OFFSET 0.0 0.0 0.0
						}
					}
				}
			}
		}
		JOINT UpperLeg_R
		{
			OFFSET -2.19251 6.46944 0.0
			CHANNELS 6 Xposition Yposition Zposition Zrotation Xrotation Yrotation 
			JOINT LowerLeg_R
			{
				OFFSET -39.0811 -0.00228153 -0.0401928
				CHANNELS 6 Xposition Yposition Zposition Zrotation Xrotation Yrotation 
				JOINT Foot_R
				{
					OFFSET -40.9854 0.0 0.0
					CHANNELS 6 Xposition Yposition Zposition Zrotation Xrotation Yrotation 
					JOINT Toes_R
					{
						OFFSET -11.7543 0.0 0.0
						CHANNELS 6 Xposition Yposition Zposition Zrotation Xrotation Yrotation 
						End Site
						{
							OFFSET 0.0 0.0 0.0
						}
					}
				}
			}
		}
	}
}
MOTION
Frames:	4
Frame Time:	0.0333333
0.000000 0.000000 0.000000 0.000000 0.000000 -0.000000 -0.546045 91.922700 0.359774 87.780500 -3.363460 3.197740 15.735700 0.000005 -0.000001 78.636700 85.322600 -77.501400 8.984550 -0.406207 -0.000000 1.426060 -1.905030 2.292560 16.377300 -0.000001 -0.000001 1.223360 -0.721952 1.081480 6.456720 -0.000001 -0.000000 -0.401168 1.024580 -3.889240 12.994200 -0.242716 4.980390 -90.171600 0.506551 -71.285600 5.348090 -0.000007 -0.000001 -68.341500 36.298200 -10.734900 24.328600 0.000019 0.000005 3.348780 4.930100 -34.248900 22.291600 -0.000001 0.000005 5.546200 5.656300 -15.649400 12.994500 -0.242716 -4.980390 87.923800 5.522490 -69.358200 -5.348130 -0.000001 -0.000004 -56.369000 36.645000 -12.372700 -24.328900 0.000322 -0.000009 -0.372536 -0.471091 -38.265300 -22.291500 -0.000108 -0.000004 4.697390 5.616380 -12.372400 -2.192480 -6.469440 -0.000000 -168.623000 -19.571200 -1.696840 39.081100 -0.000007 -0.000012 -0.190598 0.465081 22.284900 40.985400 -0.000006 -0.000013 -7.347630 -2.405410 -64.666300 11.754300 -0.000000 0.000003 -0.000137 -0.001342 -16.628700 -2.192510 6.469440 -0.000001 173.804000 20.965300 179.682000 -39.081100 -0.002282 -0.040193 -0.046073 0.138051 19.687400 -40.985400 0.000008 0.000006 -4.075040 1.867020 -63.667900 -11.754300 -0.000006 -0.000006 -0.003028 -0.040923 -18.237400
0.000000 0.000000 0.000000 0.000000 0.000000 -0.000000 -0.586581 91.926300 0.330840 87.757800 -3.369080 3.181250 15.735700 0.000005 -0.000001 78.561400 85.294700 -77.382000 8.984550 -0.406207 -0.000000 1.479570 -1.930030 2.381680 16.377300 -0.000001 -0.000001 1.012690 -0.831031 1.094610 6.456720 -0.000001 -0.000000 -0.758401 0.968324 -3.710020 12.994200 -0.242716 4.980390 -90.225100 0.664237 -71.282200 5.348090 -0.000007 -0.000001 -67.396200 35.914700 -11.557100 24.328600 0.000019 0.000005 4.145070 5.919990 -35.092500 22.291600 -0.000001 0.000005 5.808780 5.660490 -16.109600 12.994500 -0.242716 -4.980390 88.026300 5.227850 -69.283200 -5.348130 -0.000001 -0.000004 -55.564400 38.969300 -11.824300 -24.328900 0.000322 -0.000009 -0.351671 -0.406193 -40.792100 -22.291500 -0.000108 -0.000004 5.905460 5.620410 -12.647100 -2.192480 -6.469440 -0.000000 -168.589000 -19.546200 -1.728510 39.081100 -0.000007 -0.000012 -0.189363 0.462448 22.268400 40.985400 -0.000006 -0.000013 -7.363860 -2.399390 -64.631000 11.754300 -0.000000 0.000003 -0.000134 -0.001323 -16.628000 -2.192510 6.469440 -0.000001 173.866000 21.006100 179.648000 -39.081100 -0.002282 -0.040193 -0.045968 0.137762 19.686900 -40.985400 0.000008 0.000006 -4.051290 1.876180 -63.656800 -11.754300 -0.000006 -0.000006 -0.003183 -0.042659 -18.308000
0.000000 0.000000 0.000000 0.000000 0.000000 -0.000000 -0.638107 91.932500 0.300287 87.749600 -3.254080 3.176720 15.735700 0.000005 -0.000001 78.536500 85.278600 -77.330200 8.984550 -0.406207 -0.000000 1.510940 -1.941550 2.436310 16.377300 -0.000001 -0.000001 0.812836 -0.988739 1.079170 6.456720 -0.000001 -0.000000 -1.094570 0.772124 -3.416360 12.994200 -0.242716 4.980390 -90.282700 0.831848 -71.230500 5.348090 -0.000007 -0.000001 -65.457900 35.250900 -13.102600 24.328600 0.000019 0.000005 4.695980 6.430730 -36.256900 22.291600 -0.000001 0.000005 6.386180 5.664140 -16.549100 12.994500 -0.242716 -4.980390 88.169600 4.824710 -69.195400 -5.348130 -0.000001 -0.000004 -54.743900 41.525400 -10.818500 -24.328900 0.000322 -0.000009 -0.312895 -0.320141 -44.281700 -22.291500 -0.000108 -0.000004 6.698510 5.624030 -12.898700 -2.192480 -6.469440 -0.000000 -168.550000 -19.460700 -1.741870 39.081100 -0.000007 -0.000012 -0.190097 0.465834 22.199600 40.985400 -0.000006 -0.000013 -7.382750 -2.332780 -64.558200 11.754300 -0.000000 0.000003 -0.000136 -0.001340 -16.628600 -2.192510 6.469440 -0.000001 173.912000 21.042600 179.653000 -39.081100 -0.002282 -0.040193 -0.047129 0.141231 19.658100 -40.985400 0.000008 0.000006 -4.066690 1.817740 -63.647900 -11.754300 -0.000006 -0.000006 -0.003102 -0.041746 -18.270900
0.000000 0.000000 0.000000 0.000000 0.000000 -0.000000 -0.707459 91.927400 0.262767 87.763300 -3.022670 3.188550 15.735700 0.000005 -0.000001 78.427500 85.260700 -77.197200 8.984550 -0.406207 -0.000000 1.543140 -1.967250 2.485150 16.377300 -0.000001 -0.000001 0.658499 -1.192520 1.033370 6.456720 -0.000001 -0.000000 -1.376810 0.537043 -3.130580 12.994200 -0.242716 4.980390 -90.321200 0.940975 -71.154400 5.348090 -0.000007 -0.000001 -62.720700 33.971500 -15.415200 24.328600 0.000019 0.000005 5.220560 6.820550 -37.571800 22.291600 -0.000001 0.000005 7.425560 5.667410 -16.990800 12.994500 -0.242716 -4.980390 88.366400 4.276110 -69.068100 -5.348130 -0.000001 -0.000004 -53.776500 44.358900 -9.604440 -24.328900 0.000322 -0.000009 0.263446 0.233048 -48.510800 -22.291500 -0.000108 -0.000004 7.530330 5.630940 -13.400900 -2.192480 -6.469440 -0.000000 -168.548000 -19.325500 -1.840910 39.081100 -0.000007 -0.000012 -0.188707 0.461695 22.231400 40.985400 -0.000006 -0.000013 -7.396620 -2.281680 -64.501000 11.754300 -0.000000 0.000003 -0.000127 -0.001257 -16.625600 -2.192510 6.469440 -0.000001 173.928000 21.138900 179.650000 -39.081100 -0.002282 -0.040193 -0.049479 0.147203 19.732400 -40.985400 0.000008 0.000006 -4.078260 1.716140 -63.711800 -11.754300 -0.000006 -0.000006 -0.003151 -0.042297 -18.293300
